<svg id="Capa_1" enable-background="new 0 0 448 448" height="512" viewBox="0 0 448 448" width="512" xmlns="http://www.w3.org/2000/svg"><path d="m213.657 151.03c1.505-1.497 2.349-3.534 2.343-5.657v-25.373h-13.578l-2.422 1.615v23.758c0 4.418 3.581 8 8 8 2.122 0 4.157-.843 5.657-2.343z"/><path d="m392 8h-96v8c.001 2.726-.464 5.431-1.376 8h81.376c4.418 0 8 3.582 8 8v328c0 2.122-.843 4.157-2.343 5.657l-64 64c-1.5 1.5-3.535 2.343-5.657 2.343h-240c-4.418 0-8-3.582-8-8v-392c0-4.418 3.582-8 8-8h81.376c-.912-2.569-1.377-5.274-1.376-8v-8h-96c-4.416.005-7.995 3.584-8 8v424c.005 4.416 3.584 7.995 8 8h336c4.416-.005 7.995-3.584 8-8v-424c-.005-4.416-3.584-7.995-8-8z"/><path d="m144.11 174.1c-2.859 3.956-5.562 8.013-8.11 12.172v29.728h72.457c.31-2.738.777-5.456 1.4-8.14-25.705-1.446-49.594-13.713-65.747-33.76z"/><path d="m176 24h96c4.416-.005 7.995-3.584 8-8v-16h-112v16c.005 4.416 3.584 7.995 8 8z"/><path d="m136 158.3c.09-.116.181-.231.272-.346.529-2.014 1.826-3.74 3.612-4.81.16-.1.326-.177.49-.261 12.659-15.189 27.337-28.574 43.626-39.783v-1.1c0-4.418 3.582-8 8-8h56c2.122 0 4.157.843 5.657 2.343l13.657 13.657h20.686c4.418 0 8 3.582 8 8v18.762c-.018 16.14-13.098 29.22-29.238 29.238h-10.762c-3.461.007-6.827 1.129-9.6 3.2-11.823 8.922-19.653 22.144-21.794 36.8h87.394v-144h-176z"/><path d="m236.8 166.4c5.546-4.141 12.279-6.386 19.2-6.4h10.762c7.308-.008 13.23-5.93 13.238-13.238v-10.762h-16c-2.122 0-4.157-.843-5.657-2.343l-13.657-13.657h-12.686v25.373c0 13.255-10.745 24-24 24s-24-10.745-24-24v-12.479c-10.824 8.377-20.765 17.836-29.67 28.23 14.025 19.33 36.436 30.802 60.317 30.876h.9c4.99-10.075 12.268-18.842 21.253-25.6z"/><path d="m356.686 368h-36.686v36.686z"/><path d="m296 344v-16c0-4.418 3.582-8 8-8h16v-16h-16c-4.418 0-8-3.582-8-8v-16h-16v16c0 4.418-3.582 8-8 8h-16v16h16c4.418 0 8 3.582 8 8v16z"/><path d="m368 40h-288v376h224v-56h-32c-4.418 0-8-3.582-8-8v-16h-16c-4.418 0-8-3.582-8-8v-32c0-4.418 3.582-8 8-8h16v-16c0-4.418 3.582-8 8-8h32c4.418 0 8 3.582 8 8v16h16c4.418 0 8 3.582 8 8v32c0 4.418-3.582 8-8 8h-16v16h56zm-272 224h64v16h-64zm0 32h16v16h-16zm0 32h72v16h-72zm96 48h-96v-16h96zm24-32h-32v-16h32zm0-32h-88v-16h88zm112-88c0 4.418-3.582 8-8 8h-192c-4.418 0-8-3.582-8-8v-160c0-4.418 3.582-8 8-8h192c4.418 0 8 3.582 8 8z"/></svg>